# Blender v2.80 (sub 75) OBJ File: ''
# www.blender.org
mtllib tree3.mtl
o Cube.002_Cube.000
v -0.093862 0.017815 -0.166606
v -0.093862 0.759988 -0.166606
v 0.178529 0.759988 -0.090885
v 0.178530 0.017815 -0.090885
v 0.102809 0.759988 0.181506
v 0.102809 0.017815 0.181506
v -0.169582 0.759988 0.105785
v -0.169582 0.017815 0.105785
vn 0.2678 0.0000 -0.9635
vn 0.9635 0.0000 0.2678
vn -0.2678 -0.0000 0.9635
vn -0.9635 -0.0000 -0.2678
vn 0.0000 -1.0000 -0.0000
usemtl Material.001
s 1
f 1//1 2//1 3//1 4//1
f 4//2 3//2 5//2 6//2
f 6//3 5//3 7//3 8//3
f 8//4 7//4 2//4 1//4
f 4//5 6//5 8//5 1//5
o Cube.002_Cube.010
v -0.093862 0.759988 -0.166606
v 0.178529 0.759988 -0.090885
v 0.102809 0.759988 0.181506
v -0.169582 0.759988 0.105785
v 0.752412 0.759990 1.331318
v -1.319393 0.759988 0.755388
v 1.328341 0.759990 -0.740488
v -0.743464 0.759988 -1.316417
v -0.074688 3.036378 -0.132667
v 0.144590 3.036378 -0.071711
v -0.135643 3.036378 0.086611
v -1.035465 2.088423 0.594978
v -0.583055 2.088423 -1.032488
v 0.083634 3.036378 0.147566
v 0.592002 2.088424 1.047388
v 0.017234 4.787879 0.030037
v -0.018114 4.787879 0.020211
v 1.044412 2.088424 -0.580078
v 0.027060 4.787879 -0.005311
v -0.008288 4.787879 -0.015137
vn 0.0000 -1.0000 0.0000
vn 0.2467 0.3891 -0.8876
vn 0.7630 -0.6105 0.2121
vn -0.8876 0.3891 -0.2467
vn 0.8876 0.3891 0.2467
vn -0.2467 0.3891 0.8876
vn -0.2561 0.2927 0.9213
vn -0.7630 -0.6105 -0.2121
vn 0.2121 -0.6105 -0.7630
vn -0.2121 -0.6105 0.7630
vn 0.0000 1.0000 -0.0000
vn 0.2561 0.2927 -0.9213
vn -0.9213 0.2927 -0.2561
vn 0.9213 0.2927 0.2561
usemtl Material.004
s 1
f 12//6 11//6 13//6 14//6
f 15//7 16//7 17//7 18//7
f 10//6 9//6 16//6 15//6
f 9//6 12//6 14//6 16//6
f 11//6 10//6 15//6 13//6
f 17//8 19//8 20//8 21//8
f 16//9 14//9 19//9 17//9
f 13//10 15//10 18//10 22//10
f 14//11 13//11 22//11 19//11
f 20//12 23//12 24//12 25//12
f 22//13 18//13 26//13 23//13
f 19//14 22//14 23//14 20//14
f 18//15 17//15 21//15 26//15
f 24//16 27//16 28//16 25//16
f 26//17 21//17 28//17 27//17
f 21//18 20//18 25//18 28//18
f 23//19 26//19 27//19 24//19
