# Blender v2.80 (sub 75) OBJ File: ''
# www.blender.org
mtllib tree4.mtl
o Cube.003_Cube.000
v -0.110021 0.022341 -0.179799
v -0.090670 0.790850 -0.145547
v 0.134761 0.790850 -0.082881
v 0.169013 0.022341 -0.102232
v 0.072095 0.790850 0.142549
v 0.091446 0.022341 0.176801
v -0.153336 0.790850 0.079883
v -0.187588 0.022341 0.099234
vn 0.2677 0.0362 -0.9628
vn 0.9628 0.0362 0.2677
vn -0.2677 0.0362 0.9628
vn -0.9628 0.0362 -0.2677
vn 0.0000 -1.0000 0.0000
usemtl Material.001
s 1
f 1//1 2//1 3//1 4//1
f 4//2 3//2 5//2 6//2
f 6//3 5//3 7//3 8//3
f 8//4 7//4 2//4 1//4
f 4//5 6//5 8//5 1//5
o Cube.003_Cube.011
v -0.090670 0.790850 -0.145547
v 0.134761 0.790850 -0.082881
v 0.072095 0.790850 0.142549
v -0.153336 0.790850 0.079883
v 0.860663 0.782614 1.538334
v -1.549121 0.782614 0.868452
v 1.530545 0.782614 -0.871450
v -0.879239 0.782614 -1.541332
v -0.099702 5.232489 -0.161533
v 0.150746 5.232489 -0.091912
v -0.169322 5.232489 0.088914
v -1.299507 2.846531 0.727429
v -0.738216 2.846531 -1.291718
v 0.081125 5.232489 0.158535
v 0.719640 2.846533 1.288720
v 0.005285 7.553875 0.024298
v -0.035086 7.553875 0.013075
v 1.280931 2.846533 -0.730427
v 0.016508 7.553875 -0.016073
v -0.023863 7.553875 -0.027296
vn 0.0045 -1.0000 -0.0025
vn -0.0025 -1.0000 -0.0045
vn 0.2597 0.2442 -0.9343
vn -0.0045 -1.0000 0.0025
vn 0.0025 -1.0000 0.0045
vn 0.8992 -0.3590 0.2500
vn -0.9343 0.2442 -0.2597
vn 0.9343 0.2442 0.2597
vn -0.2597 0.2442 0.9343
vn -0.2617 0.2131 0.9413
vn -0.8992 -0.3591 -0.2500
vn 0.2500 -0.3590 -0.8992
vn -0.2500 -0.3590 0.8992
vn 0.0000 1.0000 -0.0000
vn 0.2617 0.2131 -0.9413
vn -0.9413 0.2131 -0.2617
vn 0.9413 0.2131 0.2617
usemtl Material.006
s 1
f 12//6 11//7 13//7 14//6
f 15//8 16//8 17//8 18//8
f 10//9 9//10 16//10 15//9
f 9//10 12//6 14//6 16//10
f 11//7 10//9 15//9 13//7
f 17//11 19//11 20//11 21//11
f 16//12 14//12 19//12 17//12
f 13//13 15//13 18//13 22//13
f 14//14 13//14 22//14 19//14
f 20//15 23//15 24//15 25//15
f 22//16 18//16 26//16 23//16
f 19//17 22//17 23//17 20//17
f 18//18 17//18 21//18 26//18
f 24//19 27//19 28//19 25//19
f 26//20 21//20 28//20 27//20
f 21//21 20//21 25//21 28//21
f 23//22 26//22 27//22 24//22
