# Blender v2.80 (sub 75) OBJ File: ''
# www.blender.org
mtllib fern.mtl
o Plane
v -1.681098 2.133896 -4.624558
v 1.441855 2.133896 -4.624558
v -1.668906 1.421208 -4.981303
v -1.716799 2.696792 -3.607162
v 1.406155 2.587040 -3.607162
v -1.561477 2.636679 -1.975693
v 1.561477 2.470482 -1.975693
v -1.347036 1.668626 -1.121537
v 1.561477 1.857010 -0.942828
v -1.561477 -0.004097 -0.036216
v 1.561477 -0.004097 -0.036216
v 4.372616 2.743763 -2.092158
v 4.493601 2.743764 1.028451
v 4.930951 2.184072 0.848574
v 3.455437 2.912039 -2.056598
v 3.576422 2.802288 1.064011
v 1.942091 2.636679 -1.997928
v 2.063076 2.470482 1.122681
v 1.096885 1.668625 -1.750557
v 1.030987 1.857010 1.162695
v 0.004071 -0.004097 -1.922791
v 0.125055 -0.004097 1.197818
v 4.896961 2.123907 0.870659
v 2.891804 2.123906 3.730312
v 3.068532 1.226995 3.537834
v 4.156424 2.763720 0.489422
v 2.151268 2.640976 3.349074
v 2.614438 2.708673 -0.523145
v 0.609281 2.522804 2.336508
v 1.694611 1.626036 -0.875212
v -0.336501 1.836719 1.673335
v 0.838482 -0.244677 -1.768426
v -1.166676 -0.244677 1.091226
v 1.067131 2.704085 4.290682
v -1.870153 2.704085 4.020000
v 1.019397 2.313955 4.808662
v 1.146687 2.863028 3.427386
v -1.790596 2.759362 3.156703
v 1.277956 2.602941 2.002944
v -1.659327 2.445963 1.732260
v 1.150299 1.688583 1.180983
v -1.569803 1.866519 0.760803
v 1.446060 0.108644 0.178775
v -1.491222 0.108645 -0.091908
v -2.381020 2.812908 4.671440
v -4.599705 2.812910 2.062437
v -2.841108 2.359942 5.062696
v -1.614207 2.997451 4.019345
v -3.832892 2.877091 1.410342
v -0.348966 2.695473 2.943390
v -2.567650 2.513212 0.334387
v 0.212271 1.633845 2.157409
v -1.704767 1.840439 -0.399406
v 1.271327 -0.200569 1.565499
v -0.947357 -0.200569 -1.043504
v -5.544260 2.263995 1.986592
v -5.540795 2.263996 -1.763698
v -6.274055 1.495219 2.121059
v -4.359546 2.953154 1.726256
v -4.356080 2.821356 -2.024032
v -2.407223 2.758862 1.710761
v -2.403757 2.559280 -2.039527
v -1.381247 1.596347 1.454191
v -1.163412 1.822574 -2.038382
v -0.078146 -0.412391 1.712912
v -0.074680 -0.412391 -2.037376
v -4.922800 2.812483 -1.713156
v -2.779778 2.812485 -4.382275
v -5.393490 2.359763 -2.091070
v -4.138320 2.996925 -1.083300
v -1.995298 2.876631 -3.752418
v -2.843926 2.695112 -0.044037
v -0.700904 2.512949 -2.713154
v -1.966746 1.634059 0.358820
v 0.181862 1.840542 -2.004385
v -1.186299 -0.199359 1.286863
v 0.956723 -0.199359 -1.382254
v -2.848599 3.707952 1.095762
v -2.444523 3.919941 -1.557638
v -3.411818 3.548868 0.997282
v -2.065775 3.556531 1.202877
v -1.694590 3.680621 -1.462552
v -0.939843 2.863784 1.318995
v -0.585573 2.942669 -1.352623
v -0.520648 1.836716 1.113190
v 0.054735 2.129301 -1.320096
v -0.183668 0.144097 1.216864
v 0.220408 0.356086 -1.436535
v -2.517365 3.707952 -1.810602
v -0.095124 3.919941 -2.966699
v -2.752246 3.548868 -2.331893
v -2.166277 3.556531 -1.102772
v 0.247442 3.680621 -2.292837
v -1.629914 2.863784 -0.106017
v 0.779423 2.942669 -1.313552
v -1.224182 1.836715 0.125201
v 1.112171 2.129301 -0.765528
v -1.120676 0.144097 0.462233
v 1.301564 0.356086 -0.693862
v 0.791671 3.707952 -2.879522
v 2.803056 3.919941 -1.102407
v 3.068619 3.599077 -1.577339
v 0.345733 3.637383 -2.162761
v 2.385048 3.761473 -0.406774
v -0.430031 2.863784 -1.396070
v 1.623650 2.942669 0.349049
v -0.484141 1.836715 -0.932226
v 1.249424 2.129301 0.869633
v -0.753842 0.144098 -0.705146
v 1.257542 0.356086 1.071969
v 2.969543 3.472751 -0.191973
v 1.989343 3.684741 2.306630
v 3.478751 3.063767 0.129736
v 2.194941 3.556531 -0.538471
v 1.244161 3.680621 1.979130
v 1.122468 2.863784 -0.900428
v 0.186821 2.942669 1.626945
v 0.668168 1.836715 -0.792301
v -0.430486 2.129301 1.453785
v 0.362412 0.144098 -0.967850
v -0.617787 0.356086 1.530752
v 1.606172 3.518214 2.393483
v -1.051909 3.730202 2.765520
v -0.813319 3.277982 3.234389
v 1.425735 3.556531 1.529278
v -1.234463 3.680621 1.936270
v 1.214835 2.863784 0.417193
v -1.446452 2.942669 0.842165
v 0.897690 1.836715 0.074411
v -1.598496 2.129301 0.219321
v 0.900611 0.144098 -0.278144
v -1.757470 0.356086 0.093891
v 1.291248 1.274557 -4.874573
v 4.922924 2.330723 -2.113492
v 5.066892 1.391006 0.895784
v -1.755515 2.175438 4.451705
v -4.854967 2.199116 2.513875
v -6.142600 1.319109 -1.433610
v -3.270963 2.199024 -4.547807
v -2.987591 3.599077 -1.523561
v -0.428357 3.599077 -3.396862
v 1.179569 3.548868 -3.299581
v 2.508179 3.113976 2.494606
v 1.723514 3.227772 2.919590
vt 0.261788 0.894097
vt 0.741905 0.894097
vt 0.261788 0.999931
vt 0.261788 0.750634
vt 0.741905 0.750634
vt 0.261788 0.513983
vt 0.741905 0.513983
vt 0.261788 0.307545
vt 0.741905 0.307545
vt 0.261788 0.000069
vt 0.741905 0.000069
vt 0.261788 0.894097
vt 0.741905 0.894097
vt 0.741905 0.999931
vt 0.261788 0.750634
vt 0.741905 0.750634
vt 0.261788 0.513983
vt 0.741905 0.513983
vt 0.261788 0.307545
vt 0.741905 0.307545
vt 0.261788 0.000069
vt 0.741905 0.000069
vt 0.261788 0.894097
vt 0.741905 0.894097
vt 0.741905 0.999931
vt 0.261788 0.750634
vt 0.741905 0.750634
vt 0.261788 0.513983
vt 0.741905 0.513983
vt 0.261788 0.307545
vt 0.741905 0.307545
vt 0.261788 0.000069
vt 0.741905 0.000069
vt 0.261788 0.894097
vt 0.741905 0.894097
vt 0.261788 0.999931
vt 0.261788 0.750634
vt 0.741905 0.750634
vt 0.261788 0.513983
vt 0.741905 0.513983
vt 0.261788 0.307545
vt 0.741905 0.307545
vt 0.261788 0.000069
vt 0.741905 0.000069
vt 0.261788 0.894097
vt 0.741905 0.894097
vt 0.261788 0.999931
vt 0.261788 0.750634
vt 0.741905 0.750634
vt 0.261788 0.513983
vt 0.741905 0.513983
vt 0.261788 0.307545
vt 0.741905 0.307545
vt 0.261788 0.000069
vt 0.741905 0.000069
vt 0.261788 0.894097
vt 0.741905 0.894097
vt 0.261788 0.999931
vt 0.261788 0.750634
vt 0.741905 0.750634
vt 0.261788 0.513983
vt 0.741905 0.513983
vt 0.261788 0.307545
vt 0.741905 0.307545
vt 0.261788 0.000069
vt 0.741905 0.000069
vt 0.261788 0.894097
vt 0.741905 0.894097
vt 0.261788 0.999931
vt 0.261788 0.750634
vt 0.741905 0.750634
vt 0.261788 0.513983
vt 0.741905 0.513983
vt 0.261788 0.307545
vt 0.741905 0.307545
vt 0.261788 0.000069
vt 0.741905 0.000069
vt 0.261788 0.894097
vt 0.741905 0.894097
vt 0.261788 0.999931
vt 0.261788 0.750634
vt 0.741905 0.750634
vt 0.261788 0.513983
vt 0.741905 0.513983
vt 0.261788 0.307545
vt 0.741905 0.307545
vt 0.261788 0.000069
vt 0.741905 0.000069
vt 0.261788 0.894097
vt 0.741905 0.894097
vt 0.261788 0.999931
vt 0.261788 0.750634
vt 0.741905 0.750634
vt 0.261788 0.513983
vt 0.741905 0.513983
vt 0.261788 0.307545
vt 0.741905 0.307545
vt 0.261788 0.000069
vt 0.741905 0.000069
vt 0.261788 0.894097
vt 0.741905 0.894097
vt 0.741905 0.999931
vt 0.261788 0.750634
vt 0.741905 0.750634
vt 0.261788 0.513983
vt 0.741905 0.513983
vt 0.261788 0.307545
vt 0.741905 0.307545
vt 0.261788 0.000069
vt 0.741905 0.000069
vt 0.261788 0.894097
vt 0.741905 0.894097
vt 0.261788 0.999931
vt 0.261788 0.750634
vt 0.741905 0.750634
vt 0.261788 0.513983
vt 0.741905 0.513983
vt 0.261788 0.307545
vt 0.741905 0.307545
vt 0.261788 0.000069
vt 0.741905 0.000069
vt 0.261788 0.894097
vt 0.741905 0.894097
vt 0.741905 0.999931
vt 0.261788 0.750634
vt 0.741905 0.750634
vt 0.261788 0.513983
vt 0.741905 0.513983
vt 0.261788 0.307545
vt 0.741905 0.307545
vt 0.261788 0.000069
vt 0.741905 0.000069
vt 0.741905 0.999931
vt 0.261788 0.999931
vt 0.261788 0.999931
vt 0.741905 0.999931
vt 0.741905 0.999931
vt 0.741905 0.999931
vt 0.741905 0.999931
vt 0.741905 0.999931
vt 0.741905 0.999931
vt 0.261788 0.999931
vt 0.741905 0.999931
vt 0.261788 0.999931
vn 0.0129 0.7026 -0.7115
vn 0.0207 0.6821 -0.7310
vn 0.0085 0.4178 -0.9085
vn 0.0341 0.9708 -0.2375
vn 0.0284 0.9822 -0.1859
vn -0.0022 0.9314 0.3639
vn 0.0506 0.9508 0.3056
vn -0.0601 0.5800 0.8124
vn -0.0364 0.6479 0.7609
vn 0.0000 0.5443 0.8389
vn -0.0517 0.4788 0.8764
vn 0.4094 0.9120 0.0258
vn 0.4327 0.9014 -0.0168
vn 0.7625 0.6466 -0.0217
vn -0.0029 0.9991 0.0416
vn -0.0645 0.9977 0.0231
vn -0.4404 0.8976 0.0202
vn -0.3618 0.9305 0.0573
vn -0.7976 0.6005 -0.0569
vn -0.7459 0.6658 0.0192
vn -0.8618 0.5069 -0.0189
vn -0.8983 0.4379 0.0348
vn 0.6989 0.4947 0.5166
vn 0.6746 0.5504 0.4920
vn 0.8141 0.0585 0.5778
vn 0.2384 0.9503 0.2002
vn 0.1722 0.9716 0.1624
vn -0.2998 0.9317 -0.2052
vn -0.2664 0.9547 -0.1324
vn -0.6004 0.6005 -0.5281
vn -0.6053 0.6658 -0.4363
vn -0.6745 0.5069 -0.5368
vn -0.7361 0.4379 -0.5161
vn -0.0368 0.9162 0.3991
vn -0.0808 0.9014 0.4254
vn -0.0662 0.7764 0.6267
vn -0.0256 0.9995 -0.0176
vn -0.0279 0.9965 -0.0790
vn -0.0040 0.8832 -0.4690
vn 0.0456 0.9159 -0.3988
vn 0.0834 0.6171 -0.7824
vn 0.1555 0.6754 -0.7209
vn 0.0770 0.5443 -0.8354
vn 0.1319 0.4788 -0.8680
vn -0.3053 0.9162 0.2597
vn -0.3552 0.9014 0.2477
vn -0.4855 0.7764 0.4018
vn -0.0059 0.9997 -0.0223
vn 0.0272 0.9966 -0.0774
vn 0.3336 0.8809 -0.3359
vn 0.3110 0.9138 -0.2611
vn 0.6067 0.6171 -0.5011
vn 0.6152 0.6754 -0.4067
vn 0.6391 0.5443 -0.5435
vn 0.7011 0.4788 -0.5284
vn -0.6264 0.7794 -0.0112
vn -0.6168 0.7868 -0.0202
vn -0.7525 0.6585 -0.0117
vn -0.2327 0.9719 -0.0344
vn -0.1494 0.9883 -0.0300
vn 0.4322 0.9009 -0.0404
vn 0.3688 0.9295 0.0026
vn 0.7868 0.6171 0.0120
vn 0.7320 0.6754 0.0894
vn 0.8389 0.5443 0.0008
vn 0.8764 0.4788 0.0525
vn -0.3125 0.9162 -0.2509
vn -0.3102 0.9014 -0.3022
vn -0.4861 0.7764 -0.4011
vn 0.0208 0.9997 -0.0100
vn 0.0811 0.9966 0.0121
vn 0.3927 0.8809 0.2643
vn 0.3150 0.9138 0.2563
vn 0.6064 0.6171 0.5014
vn 0.5153 0.6754 0.5275
vn 0.6541 0.5443 0.5252
vn 0.6510 0.4788 0.5890
vn -0.0398 0.9975 0.0589
vn -0.0702 0.9966 0.0437
vn -0.3121 0.9498 0.0198
vn 0.3520 0.9314 0.0924
vn 0.4065 0.9074 0.1070
vn 0.7487 0.6508 0.1257
vn 0.6931 0.7019 0.1642
vn 0.9410 0.2878 0.1778
vn 0.8990 0.3557 0.2554
vn 0.9656 0.2022 0.1632
vn 0.9698 0.1238 0.2100
vn -0.0710 0.9975 0.0001
vn -0.0756 0.9966 -0.0336
vn -0.1917 0.9498 -0.2471
vn 0.1213 0.9314 0.3431
vn 0.1398 0.9074 0.3964
vn 0.3166 0.6508 0.6901
vn 0.2534 0.7019 0.6657
vn 0.3815 0.2878 0.8784
vn 0.2937 0.3557 0.8873
vn 0.4074 0.2022 0.8906
vn 0.3710 0.1238 0.9204
vn 0.0442 0.9934 -0.1061
vn 0.0148 0.9907 -0.1350
vn 0.2693 0.8772 -0.3976
vn -0.2559 0.9388 0.2308
vn -0.3026 0.9124 0.2755
vn -0.5511 0.6368 0.5392
vn -0.4697 0.7131 0.5205
vn -0.7162 0.2635 0.6462
vn -0.6482 0.3479 0.6774
vn -0.7012 0.1556 0.6958
vn -0.6647 0.0817 0.7426
vn 0.3276 0.9427 0.0635
vn 0.3628 0.9277 0.0884
vn 0.5804 0.7964 0.1700
vn -0.2045 0.9717 -0.1179
vn -0.2372 0.9595 -0.1520
vn -0.6672 0.6747 -0.3156
vn -0.6244 0.7363 -0.2608
vn -0.8525 0.2635 -0.4513
vn -0.8585 0.3479 -0.3768
vn -0.8940 0.1556 -0.4202
vn -0.9254 0.0817 -0.3700
vn 0.0881 0.9547 0.2843
vn 0.0980 0.9570 0.2729
vn 0.1409 0.7680 0.6248
vn 0.0118 0.9638 -0.2663
vn -0.0059 0.9451 -0.3267
vn -0.0524 0.6747 -0.7363
vn -0.0792 0.7363 -0.6720
vn -0.0251 0.2635 -0.9643
vn -0.0930 0.3479 -0.9329
vn -0.0725 0.1556 -0.9852
vn -0.1318 0.0817 -0.9879
vn 0.0481 0.2713 -0.9613
vn 0.6008 0.7985 0.0379
vn 0.7754 0.2003 0.5989
vn -0.1310 0.6099 0.7816
vn -0.6401 0.6099 0.4673
vn -0.8510 0.5220 -0.0573
vn -0.5795 0.6099 -0.5406
vn -0.5107 0.8570 -0.0689
vn -0.2299 0.8570 -0.4612
vn 0.1667 0.9632 -0.2109
vn 0.6702 0.6950 0.2603
vn 0.0756 0.8800 0.4689
usemtl Default_OBJ
s 1
f 1/1/1 2/2/2 3/3/3
f 4/4/4 5/5/5 1/1/1
f 6/6/6 7/7/7 5/5/5
f 8/8/8 9/9/9 6/6/6
f 10/10/10 11/11/11 8/8/8
f 12/12/12 13/13/13 14/14/14
f 15/15/15 16/16/16 12/12/12
f 17/17/17 18/18/18 15/15/15
f 19/19/19 20/20/20 17/17/17
f 21/21/21 22/22/22 20/20/20
f 23/23/23 24/24/24 25/25/25
f 26/26/26 27/27/27 24/24/24
f 28/28/28 29/29/29 26/26/26
f 30/30/30 31/31/31 28/28/28
f 32/32/32 33/33/33 31/31/31
f 34/34/34 35/35/35 36/36/36
f 37/37/37 38/38/38 35/35/35
f 39/39/39 40/40/40 37/37/37
f 41/41/41 42/42/42 40/40/40
f 43/43/43 44/44/44 41/41/41
f 45/45/45 46/46/46 47/47/47
f 48/48/48 49/49/49 46/46/46
f 50/50/50 51/51/51 49/49/49
f 52/52/52 53/53/53 51/51/51
f 54/54/54 55/55/55 52/52/52
f 56/56/56 57/57/57 58/58/58
f 59/59/59 60/60/60 56/56/56
f 61/61/61 62/62/62 60/60/60
f 63/63/63 64/64/64 62/62/62
f 65/65/65 66/66/66 63/63/63
f 67/67/67 68/68/68 69/69/69
f 70/70/70 71/71/71 68/68/68
f 72/72/72 73/73/73 71/71/71
f 74/74/74 75/75/75 73/73/73
f 76/76/76 77/77/77 74/74/74
f 78/78/78 79/79/79 80/80/80
f 81/81/81 82/82/82 78/78/78
f 83/83/83 84/84/84 82/82/82
f 85/85/85 86/86/86 84/84/84
f 87/87/87 88/88/88 85/85/85
f 89/89/89 90/90/90 91/91/91
f 92/92/92 93/93/93 89/89/89
f 94/94/94 95/95/95 93/93/93
f 96/96/96 97/97/97 95/95/95
f 98/98/98 99/99/99 96/96/96
f 100/100/100 101/101/101 102/102/102
f 103/103/103 104/104/104 100/100/100
f 105/105/105 106/106/106 104/104/104
f 107/107/107 108/108/108 105/105/105
f 109/109/109 110/110/110 108/108/108
f 111/111/111 112/112/112 113/113/113
f 114/114/114 115/115/115 111/111/111
f 116/116/116 117/117/117 114/114/114
f 118/118/118 119/119/119 116/116/116
f 120/120/120 121/121/121 119/119/119
f 122/122/122 123/123/123 124/124/124
f 125/125/125 126/126/126 123/123/123
f 127/127/127 128/128/128 125/125/125
f 129/129/129 130/130/130 127/127/127
f 131/131/131 132/132/132 130/130/130
f 2/2/2 133/133/133 3/3/3
f 5/5/5 2/2/2 1/1/1
f 4/4/4 6/6/6 5/5/5
f 9/9/9 7/7/7 6/6/6
f 11/11/11 9/9/9 8/8/8
f 134/134/134 12/12/12 14/14/14
f 16/16/16 13/13/13 12/12/12
f 18/18/18 16/16/16 15/15/15
f 20/20/20 18/18/18 17/17/17
f 19/19/19 21/21/21 20/20/20
f 135/135/135 23/23/23 25/25/25
f 23/23/23 26/26/26 24/24/24
f 29/29/29 27/27/27 26/26/26
f 31/31/31 29/29/29 28/28/28
f 30/30/30 32/32/32 31/31/31
f 35/35/35 136/136/136 36/36/36
f 34/34/34 37/37/37 35/35/35
f 40/40/40 38/38/38 37/37/37
f 39/39/39 41/41/41 40/40/40
f 44/44/44 42/42/42 41/41/41
f 46/46/46 137/137/137 47/47/47
f 45/45/45 48/48/48 46/46/46
f 48/48/48 50/50/50 49/49/49
f 50/50/50 52/52/52 51/51/51
f 55/55/55 53/53/53 52/52/52
f 57/57/57 138/138/138 58/58/58
f 60/60/60 57/57/57 56/56/56
f 59/59/59 61/61/61 60/60/60
f 61/61/61 63/63/63 62/62/62
f 66/66/66 64/64/64 63/63/63
f 68/68/68 139/139/139 69/69/69
f 67/67/67 70/70/70 68/68/68
f 70/70/70 72/72/72 71/71/71
f 72/72/72 74/74/74 73/73/73
f 77/77/77 75/75/75 74/74/74
f 79/79/79 140/140/140 80/80/80
f 82/82/82 79/79/79 78/78/78
f 81/81/81 83/83/83 82/82/82
f 83/83/83 85/85/85 84/84/84
f 88/88/88 86/86/86 85/85/85
f 90/90/90 141/141/141 91/91/91
f 93/93/93 90/90/90 89/89/89
f 92/92/92 94/94/94 93/93/93
f 94/94/94 96/96/96 95/95/95
f 99/99/99 97/97/97 96/96/96
f 142/142/142 100/100/100 102/102/102
f 104/104/104 101/101/101 100/100/100
f 103/103/103 105/105/105 104/104/104
f 108/108/108 106/106/106 105/105/105
f 107/107/107 109/109/109 108/108/108
f 112/112/112 143/143/143 113/113/113
f 115/115/115 112/112/112 111/111/111
f 117/117/117 115/115/115 114/114/114
f 119/119/119 117/117/117 116/116/116
f 118/118/118 120/120/120 119/119/119
f 144/144/144 122/122/122 124/124/124
f 122/122/122 125/125/125 123/123/123
f 128/128/128 126/126/126 125/125/125
f 130/130/130 128/128/128 127/127/127
f 129/129/129 131/131/131 130/130/130
