# Blender v2.80 (sub 75) OBJ File: ''
# www.blender.org
mtllib tree2.mtl
o Cube.001_Cube.000
v -0.068819 0.050283 -0.137694
v -0.068819 0.805420 -0.137694
v 0.130479 0.805420 -0.082292
v 0.130479 0.050283 -0.082292
v 0.075077 0.805797 0.117007
v 0.075077 0.050581 0.117007
v -0.124221 0.805795 0.061605
v -0.124221 0.050581 0.061605
vn 0.2678 -0.0000 -0.9635
vn 0.9635 0.0000 0.2678
vn -0.2678 0.0000 0.9635
vn -0.9635 -0.0000 -0.2678
vn -0.0004 -1.0000 0.0014
usemtl Material.001
s 1
f 1//1 2//1 3//1 4//1
f 4//2 3//2 5//2 6//2
f 6//3 5//3 7//3 8//3
f 8//4 7//4 2//4 1//4
f 4//5 6//5 8//5 1//5
o Cube.001_Cube.009
v -0.068819 0.805420 -0.137694
v 0.130479 0.805420 -0.082292
v 0.075077 0.805797 0.117007
v -0.124221 0.805795 0.061605
v 0.772235 0.656620 1.350992
v -1.358206 0.656620 0.758763
v 1.364465 0.653177 -0.779450
v -0.765977 0.653175 -1.371679
v -0.054790 3.082737 -0.112861
v 0.105646 3.082737 -0.068263
v -0.099389 3.083235 0.047575
v -1.096816 1.954860 0.611087
v -0.618301 1.950893 -1.110289
v 0.061047 3.083235 0.092174
v 0.624559 1.954862 1.089602
v 0.012465 4.567062 0.006182
v -0.013397 4.567062 -0.001008
v 1.103074 1.950895 -0.631774
v 0.019654 4.566959 -0.019680
v -0.006208 4.566959 -0.026869
vn 0.0394 -0.9891 -0.1419
vn 0.2469 0.3879 -0.8880
vn -0.0402 -0.9887 0.1447
vn 0.1429 -0.9889 0.0413
vn -0.1437 -0.9889 -0.0383
vn 0.7827 -0.5826 0.2190
vn -0.8878 0.3881 -0.2475
vn 0.8881 0.3881 0.2462
vn -0.2468 0.3883 0.8879
vn -0.2538 0.3192 0.9131
vn -0.7834 -0.5826 -0.2164
vn 0.2176 -0.5832 -0.7827
vn -0.2178 -0.5820 0.7835
vn 0.0010 1.0000 -0.0037
vn 0.2539 0.3188 -0.9132
vn -0.9129 0.3190 -0.2545
vn 0.9133 0.3190 0.2531
usemtl Material.003
s 1
f 12//6 11//6 13//6 14//6
f 15//7 16//7 17//7 18//7
f 10//8 9//8 16//8 15//8
f 9//9 12//9 14//9 16//9
f 11//10 10//10 15//10 13//10
f 17//11 19//11 20//11 21//11
f 16//12 14//12 19//12 17//12
f 13//13 15//13 18//13 22//13
f 14//14 13//14 22//14 19//14
f 20//15 23//15 24//15 25//15
f 22//16 18//16 26//16 23//16
f 19//17 22//17 23//17 20//17
f 18//18 17//18 21//18 26//18
f 24//19 27//19 28//19 25//19
f 26//20 21//20 28//20 27//20
f 21//21 20//21 25//21 28//21
f 23//22 26//22 27//22 24//22
