# Blender v2.80 (sub 75) OBJ File: ''
# www.blender.org
mtllib tree7.mtl
o Cube.006_Cube.000
v -0.105276 0.006729 -0.194736
v -0.085392 0.787916 -0.159542
v 0.146239 0.787916 -0.095152
v 0.181434 0.006729 -0.115035
v 0.081849 0.787916 0.136481
v 0.101733 0.006729 0.171675
v -0.149782 0.787916 0.072091
v -0.184977 0.006729 0.091974
vn 0.2676 0.0366 -0.9628
vn 0.9628 0.0366 0.2676
vn -0.2676 0.0366 0.9628
vn -0.9628 0.0366 -0.2676
vn 0.0000 -1.0000 0.0000
usemtl Material.001
s 1
f 1//1 2//1 3//1 4//1
f 4//2 3//2 5//2 6//2
f 6//3 5//3 7//3 8//3
f 8//4 7//4 2//4 1//4
f 4//5 6//5 8//5 1//5
o Cube.006_Cube.014
v -0.085392 0.787916 -0.159542
v 0.146239 0.787916 -0.095152
v 0.081849 0.787916 0.136481
v -0.149782 0.787916 0.072091
v 0.892111 0.787917 1.570664
v -1.583966 0.787916 0.882353
v 1.580422 0.787917 -0.905415
v -0.895655 0.787916 -1.593725
v -0.094672 3.392967 -0.175968
v 0.162665 3.392967 -0.104432
v -0.166208 3.392967 0.081371
v -1.327485 2.315037 0.737450
v -0.750752 2.315037 -1.337244
v 0.091129 3.392967 0.152906
v 0.747209 2.315039 1.314182
v 0.013203 4.940149 0.014976
v -0.028279 4.940149 0.003445
v 1.323941 2.315039 -0.760512
v 0.013203 4.940149 0.014976
v 0.024735 4.940149 -0.026507
v 0.901313 3.766007 -0.521742
v 0.508439 3.766007 0.891554
v -0.016748 4.940149 -0.038038
v 0.024735 4.940149 -0.026507
v -1.327485 2.315037 0.737450
v 0.747209 2.315039 1.314182
v -0.028279 4.940149 0.003445
v -0.016748 4.940149 -0.038038
v -0.904858 3.766005 0.498680
v -0.511984 3.766005 -0.914616
v 1.323941 2.315039 -0.760512
v -0.750752 2.315037 -1.337244
v -0.012917 6.088940 -0.031257
v 0.017954 6.088940 -0.022676
v 0.009372 6.088940 0.008196
v -0.021499 6.088940 -0.000386
v 0.508439 3.766007 0.891554
v -0.904858 3.766005 0.498680
v -0.511984 3.766005 -0.914616
v 0.901313 3.766007 -0.521742
v 0.009372 6.088940 0.008196
v 0.017954 6.088940 -0.022676
v -0.012917 6.088940 -0.031257
v -0.021499 6.088940 -0.000386
vn 0.0000 -1.0000 0.0000
vn 0.2450 0.4043 -0.8812
vn 0.7251 -0.6585 0.2016
vn -0.8812 0.4043 -0.2450
vn 0.8812 0.4043 0.2450
vn -0.2450 0.4043 0.8812
vn -0.2485 0.3729 0.8940
vn -0.7251 -0.6585 -0.2016
vn 0.2016 -0.6585 -0.7251
vn -0.2016 -0.6585 0.7251
vn -0.8239 -0.5185 -0.2290
vn 0.2485 0.3729 -0.8940
vn -0.8940 0.3729 -0.2485
vn 0.8940 0.3729 0.2485
vn 0.8239 -0.5185 0.2290
vn 0.2559 0.2951 -0.9206
vn -0.2559 0.2951 0.9206
vn 0.2290 -0.5185 -0.8239
vn -0.2290 -0.5185 0.8239
vn 0.0000 1.0000 -0.0000
vn -0.9206 0.2951 -0.2559
vn 0.9206 0.2951 0.2559
usemtl Material.004
s 1
f 12//6 11//6 13//6 14//6
f 15//7 16//7 17//7 18//7
f 10//6 9//6 16//6 15//6
f 9//6 12//6 14//6 16//6
f 11//6 10//6 15//6 13//6
f 17//8 19//8 20//8 21//8
f 16//9 14//9 19//9 17//9
f 13//10 15//10 18//10 22//10
f 14//11 13//11 22//11 19//11
f 20//12 23//12 24//12 25//12
f 22//13 18//13 26//13 23//13
f 19//14 22//14 23//14 20//14
f 18//15 17//15 21//15 26//15
f 27//16 28//16 29//16 30//16
f 26//17 21//17 31//17 32//17
f 21//18 20//18 25//18 31//18
f 23//19 26//19 32//19 24//19
f 33//12 34//12 27//12 35//12
f 36//20 35//20 37//20 38//20
f 39//17 40//17 36//17 28//17
f 40//18 33//18 35//18 36//18
f 34//19 39//19 28//19 27//19
f 29//21 38//21 41//21 42//21
f 37//22 30//22 43//22 44//22
f 25//23 24//23 45//23 46//23
f 32//24 31//24 47//24 48//24
f 35//23 27//23 30//23 37//23
f 31//20 25//20 46//20 47//20
f 28//24 36//24 38//24 29//24
f 24//16 32//16 48//16 45//16
f 49//25 50//25 51//25 52//25
f 43//25 42//25 41//25 44//25
f 46//22 45//22 49//22 52//22
f 48//21 47//21 51//21 50//21
f 38//26 37//26 44//26 41//26
f 30//27 29//27 42//27 43//27
f 47//26 46//26 52//26 51//26
f 45//27 48//27 50//27 49//27
